<?xml version="1.0" encoding="UTF-8"?>
<svg width="20px" height="24px" viewBox="0 0 20 24" version="1.1" xmlns="http://www.w3.org/2000/svg" xmlns:xlink="http://www.w3.org/1999/xlink">
    <!-- Generator: Sketch 48.2 (47327) - http://www.bohemiancoding.com/sketch -->
    <title>menu-expanded</title>
    <desc>Created with Sketch.</desc>
    <defs></defs>
    <g id="Page-1" stroke="none" stroke-width="1" fill="none" fill-rule="evenodd">
        <g id="menu-expanded" transform="translate(-2.000000, 2.000000)" fill="#333758">
            <path d="M23,11 L19,11 C18.4,11 18,10.6 18,10 C18,9.4 18.4,9 19,9 L23,9 C23.6,9 24,9.4 24,10 C24,10.6 23.6,11 23,11 Z M23,2 L1,2 C0.4,2 0,1.6 0,1 C0,0.4 0.4,0 1,0 L23,0 C23.6,0 24,0.4 24,1 C24,1.6 23.6,2 23,2 Z M1,9 L5,9 C5.6,9 6,9.4 6,10 C6,10.6 5.6,11 5,11 L1,11 C0.4,11 0,10.6 0,10 C0,9.4 0.4,9 1,9 Z M1,18 L7,18 C7.6,18 8,18.4 8,19 C8,19.6 7.6,20 7,20 L1,20 C0.4,20 0,19.6 0,19 C0,18.4 0.4,18 1,18 Z M11.3,9.3 C11.3,9.3 11.3,9.3 11.3,9.3 C11.5,9.1 11.7,9 12,9 C12.1,9 12.3,9 12.4,9.1 C12.5,9.1 12.5,9.1 12.5,9.2 C12.5,9.2 12.5,9.2 12.6,9.2 C12.7,9.2 12.7,9.3 12.8,9.3 L15.7,12.2 C16.1,12.6 16.1,13.3 15.7,13.7 C15.3,14.1 14.6,14.1 14.2,13.7 L13,12.5 L13,19 C13,19.6 12.6,20 12,20 C11.4,20 11,19.6 11,19 L11,12.5 L9.8,13.7 C9.4,14.1 8.7,14.1 8.3,13.7 C7.9,13.3 7.9,12.6 8.3,12.2 L11.3,9.3 Z M17,18 L23,18 C23.6,18 24,18.4 24,19 C24,19.6 23.6,20 23,20 L17,20 C16.4,20 16,19.6 16,19 C16,18.4 16.4,18 17,18 Z" id="Shape" transform="translate(12.000000, 10.000000) rotate(270.000000) translate(-12.000000, -10.000000) "></path>
        </g>
    </g>
</svg>