<?xml version="1.0" encoding="UTF-8"?>
<svg width="20px" height="24px" viewBox="0 0 20 24" version="1.1" xmlns="http://www.w3.org/2000/svg" xmlns:xlink="http://www.w3.org/1999/xlink">
    <!-- Generator: Sketch 48.2 (47327) - http://www.bohemiancoding.com/sketch -->
    <title>menu-collapsed</title>
    <desc>Created with Sketch.</desc>
    <defs></defs>
    <g id="Page-1" stroke="none" stroke-width="1" fill="none" fill-rule="evenodd">
        <g id="menu-collapsed" transform="translate(-2.000000, 2.000000)" fill="#333759">
            <path d="M23,11 L17,11 C16.4,11 16,10.6 16,10 C16,9.4 16.4,9 17,9 L23,9 C23.6,9 24,9.4 24,10 C24,10.6 23.6,11 23,11 Z M23,2 L1,2 C0.4,2 0,1.6 0,1 C0,0.4 0.4,0 1,0 L23,0 C23.6,0 24,0.4 24,1 C24,1.6 23.6,2 23,2 Z M1,9 L7,9 C7.6,9 8,9.4 8,10 C8,10.6 7.6,11 7,11 L1,11 C0.4,11 0,10.6 0,10 C0,9.4 0.4,9 1,9 Z M1,18 L5,18 C5.6,18 6,18.4 6,19 C6,19.6 5.6,20 5,20 L1,20 C0.4,20 0,19.6 0,19 C0,18.4 0.4,18 1,18 Z M9.8,15.3 L11,16.5 L11,10 C11,9.4 11.4,9 12,9 C12.6,9 13,9.4 13,10 L13,16.5 L14.2,15.3 C14.6,14.9 15.3,14.9 15.7,15.3 C16.1,15.7 16.1,16.4 15.7,16.8 L12.8,19.7 C12.6,19.9 12.3,20 12,20 C12,20 11.9,20 11.9,20 C11.9,20 11.9,20 11.9,20 C11.7,20 11.4,19.9 11.2,19.7 L8.3,16.8 C7.9,16.4 7.9,15.7 8.3,15.3 C8.7,14.9 9.4,14.9 9.8,15.3 Z M19,18 L23,18 C23.6,18 24,18.4 24,19 C24,19.6 23.6,20 23,20 L19,20 C18.4,20 18,19.6 18,19 C18,18.4 18.4,18 19,18 Z" id="Shape" transform="translate(12.000000, 10.000000) rotate(270.000000) translate(-12.000000, -10.000000) "></path>
        </g>
    </g>
</svg>