<?xml version="1.0" encoding="UTF-8" standalone="no"?>
<svg xmlns="http://www.w3.org/2000/svg" height="193px" width="547px" version="1.1" xmlns:xlink="http://www.w3.org/1999/xlink" viewBox="0 0 547 193"><!-- Generator: Sketch 48.2 (47327) - http://www.bohemiancoding.com/sketch -->
 <title>vuestic</title>
 <desc>Created with Sketch.</desc>
 <defs>
  <polygon id="path-1" points="140.15 31.731 22.344 113.83 22.344 166.77 522.77 166.77 522.77 31.731"/>
  <filter id="filter-2" height="131.9%" width="108.6%" y="-15.9%" x="-4.3%" filterUnits="objectBoundingBox">
   <feMorphology operator="dilate" radius="8.53184" result="shadowSpreadOuter1" in="SourceAlpha"/>
   <feOffset in="shadowSpreadOuter1" result="shadowOffsetOuter1" dx="0" dy="0"/>
   <feMorphology operator="erode" radius="8.53184" result="shadowInner" in="SourceAlpha"/>
   <feOffset in="shadowInner" result="shadowInner" dx="0" dy="0"/>
   <feComposite operator="out" result="shadowOffsetOuter1" in2="shadowInner" in="shadowOffsetOuter1"/>
   <feGaussianBlur stdDeviation="3" result="shadowBlurOuter1" in="shadowOffsetOuter1"/>
   <feColorMatrix type="matrix" values="0 0 0 0 0.952941176   0 0 0 0 0.458823529   0 0 0 0 0.28627451  0 0 0 0.52564538 0" in="shadowBlurOuter1"/>
  </filter>
  <linearGradient id="linearGradient-5" x2="52.784%" x1="47.747%" y2="41.066%">
   <stop stop-color="#FF9A3E" offset="0"/>
   <stop stop-color="#E44B26" offset="1"/>
  </linearGradient>
  <linearGradient id="linearGradient-6" y1="23.925%" x2="53.45%" x1="46.195%" y2="69.66%">
   <stop stop-color="#FF9A3E" offset="0"/>
   <stop stop-color="#E44B26" offset="1"/>
  </linearGradient>
  <path id="path-7" d="m37.404 1.4425c4.114 0 7.982 0.7843 11.606 2.3528 3.624 1.5686 6.807 3.7254 9.55 6.4707 2.742 2.745 4.897 5.931 6.464 9.558s2.351 7.549 2.351 11.764c0 4.118-0.784 8.015-2.351 11.691s-3.722 6.862-6.464 9.558c-2.743 2.696-5.926 4.829-9.55 6.397-3.624 1.569-7.492 2.353-11.606 2.353h-23.8v47.203h-12.782l0.00038-107.35 36.582 0.0025zm0 47.204c2.351 0 4.579-0.441 6.685-1.323 2.105-0.882 3.917-2.108 5.436-3.676 1.518-1.569 2.742-3.383 3.672-5.441 0.931-2.059 1.396-4.265 1.396-6.618s-0.465-4.583-1.396-6.691c-0.93-2.107-2.154-3.946-3.672-5.514-1.519-1.569-3.331-2.794-5.436-3.676-2.106-0.883-4.334-1.324-6.685-1.324h-23.8v34.263h23.8zm40.402-13.381h12.634v73.525h-12.634v-73.525zm88.004 30.734c-0.79-2.745-1.94-5.319-3.46-7.721-1.51-2.402-3.35-4.46-5.5-6.176-2.16-1.716-4.58-3.064-7.28-4.044-2.69-0.98-5.55-1.47-8.59-1.47s-5.9 0.49-8.6 1.47c-2.69 0.98-5.11 2.328-7.27 4.044-2.15 1.716-4.01 3.774-5.58 6.176s-2.69 4.976-3.38 7.721h49.66zm-24.83 44.561c-5.29 0-10.26-1.01-14.91-3.02-4.66-2.01-8.72-4.75-12.2-8.234-3.47-3.48-6.22-7.524-8.22-12.132-2.01-4.608-3.02-9.558-3.02-14.852s1.01-10.294 3.02-15c2-4.705 4.75-8.774 8.22-12.205 3.48-3.431 7.54-6.152 12.2-8.161 4.65-2.01 9.62-3.015 14.91-3.015s10.26 1.005 14.91 3.015c4.65 2.009 8.69 4.73 12.12 8.161s6.15 7.5 8.15 12.205c2.01 4.706 3.02 9.706 3.02 15v2.206c0 0.784-0.1 2.107-0.3 3.97h-62.73c0.69 2.843 1.81 5.441 3.38 7.794s3.43 4.411 5.58 6.176c2.16 1.765 4.58 3.137 7.27 4.117 2.7 0.981 5.56 1.471 8.6 1.471 2.35 0 4.7-0.613 7.05-1.838 2.35-1.226 4.6-2.868 6.76-4.926l8.81 8.818c-3.23 3.14-6.78 5.67-10.65 7.58s-7.86 2.87-11.97 2.87zm73.02-33.091c-2.75 0-5.32-0.491-7.72-1.471s-4.53-2.328-6.39-4.044c-1.86-1.715-3.35-3.75-4.48-6.103-1.13-2.352-1.74-4.901-1.84-7.646-0.09-0.588-0.14-1.348-0.14-2.28 0-0.931 0.05-1.691 0.14-2.279 0.1-2.647 0.71-5.147 1.84-7.5 1.13-2.352 2.62-4.411 4.48-6.176 1.86-1.764 3.99-3.137 6.39-4.117 2.4-0.981 4.97-1.471 7.72-1.471h28.2v12.647h-28.2c-2.06 0-3.85 0.711-5.37 2.132-1.52 1.422-2.37 3.211-2.57 5.367-0.19 0.981-0.19 2.01 0 3.089 0.2 2.058 1.05 3.798 2.57 5.22 1.52 1.421 3.31 2.132 5.37 2.132h10.13c2.74 0 5.34 0.515 7.79 1.544 2.45 1.03 4.58 2.427 6.39 4.191 1.81 1.765 3.28 3.824 4.41 6.176 1.12 2.353 1.74 4.902 1.83 7.647v4.118c0 2.843-0.56 5.465-1.69 7.867-1.12 2.402-2.59 4.538-4.4 6.398-1.82 1.86-3.97 3.31-6.47 4.34s-5.16 1.54-8 1.54h-28.95v-12.499h28.95c1.95 0 3.64-0.637 5.06-1.911 1.42-1.275 2.38-2.794 2.87-4.559v-0.588c0-0.196 0.02-0.368 0.07-0.515s0.08-0.318 0.08-0.515v-2.794c-0.1-2.254-0.91-4.142-2.43-5.661-1.52-1.52-3.4-2.279-5.65-2.279h-9.99zm78.89-43.822c5.29 0 10.26 1.005 14.91 3.015 4.65 2.009 8.72 4.73 12.19 8.161 3.48 3.431 6.22 7.5 8.23 12.205 2.01 4.706 3.01 9.706 3.01 15s-1 10.269-3.01 14.926c-2.01 4.656-4.75 8.7-8.23 12.131-3.47 3.435-7.54 6.155-12.19 8.165s-9.62 3.01-14.91 3.01-10.24-1-14.84-3.01-8.64-4.73-12.12-8.165c-3.48-3.431-6.22-7.475-8.23-12.131-2.01-4.657-3.01-9.632-3.01-14.926s1-10.294 3.01-15c2.01-4.705 4.75-8.774 8.23-12.205s7.52-6.152 12.12-8.161c4.6-2.01 9.55-3.015 14.84-3.015zm0 12.647c-3.53 0-6.86 0.661-9.99 1.985-3.14 1.323-5.88 3.161-8.23 5.514s-4.19 5.098-5.51 8.235-1.98 6.47-1.98 10c0 3.529 0.66 6.862 1.98 9.999s3.16 5.858 5.51 8.162 5.09 4.142 8.23 5.514c3.13 1.373 6.46 2.059 9.99 2.059 3.52 0 6.85-0.686 9.99-2.059 3.13-1.372 5.88-3.21 8.23-5.514s4.18-5.025 5.51-8.162c1.32-3.137 1.98-6.47 1.98-9.999 0-3.53-0.66-6.863-1.98-10-1.33-3.137-3.16-5.882-5.51-8.235s-5.1-4.191-8.23-5.514c-3.14-1.324-6.47-1.985-9.99-1.985zm90.2-12.647c5.29 0 10.26 1.005 14.92 3.015 4.65 2.009 8.71 4.73 12.19 8.161s6.22 7.5 8.23 12.205c2 4.706 3.01 9.706 3.01 15v36.762h-12.64v-36.762c0-3.53-0.66-6.863-1.98-10s-3.13-5.882-5.44-8.235c-2.3-2.353-5.01-4.191-8.15-5.514-3.13-1.324-6.51-1.985-10.14-1.985-3.52 0-6.85 0.661-9.99 1.985-3.13 1.323-5.85 3.161-8.15 5.514s-4.14 5.098-5.51 8.235-2.06 6.47-2.06 10v36.762h-12.48v-36.762c0-5.294 1-10.294 3.01-15 2.01-4.705 4.75-8.774 8.23-12.205 3.47-3.431 7.51-6.152 12.12-8.161 4.6-2.01 9.54-3.015 14.83-3.015z"/>
  <filter id="filter-8" height="120.1%" width="105.2%" y="-10.1%" x="-2.6%" filterUnits="objectBoundingBox">
   <feMorphology operator="dilate" radius="1.48599997" result="shadowSpreadOuter1" in="SourceAlpha"/>
   <feOffset in="shadowSpreadOuter1" result="shadowOffsetOuter1" dx="0" dy="0"/>
   <feGaussianBlur stdDeviation="2.5" result="shadowBlurOuter1" in="shadowOffsetOuter1"/>
   <feComposite operator="out" result="shadowBlurOuter1" in2="SourceAlpha" in="shadowBlurOuter1"/>
   <feColorMatrix type="matrix" values="0 0 0 0 0.894117647   0 0 0 0 0.294117647   0 0 0 0 0.149019608  0 0 0 0.458673007 0" in="shadowBlurOuter1"/>
  </filter>
  <path id="path-9" d="m87.472 8.0156s4.245 20.04-10.001 33.7-38.724 5.301-46.984-6.241c-8.261-11.541-5.251-20.673-5.251-20.673s-3.478-6.7864-11.733-11.148c-8.2559-4.3607-13.503-3.6037-13.503-3.6037 0-0.00003 10.244 5.7547 12.773 18.451 2.53 12.696 2.617 22.458 13.006 33.985s32.52 17.827 50.29 11.6 25.801-27.513 21.859-40.152c-3.939-12.64-10.456-15.918-10.456-15.918z"/>
  <filter id="filter-10" height="127.1%" width="118.2%" y="-13.5%" x="-9.1%" filterUnits="objectBoundingBox">
   <feMorphology operator="dilate" radius="0.5" result="shadowSpreadOuter1" in="SourceAlpha"/>
   <feOffset in="shadowSpreadOuter1" result="shadowOffsetOuter1" dx="0" dy="0"/>
   <feGaussianBlur stdDeviation="2.5" result="shadowBlurOuter1" in="shadowOffsetOuter1"/>
   <feColorMatrix type="matrix" values="0 0 0 0 0.894117647   0 0 0 0 0.294117647   0 0 0 0 0.149019608  0 0 0 0.517917799 0" in="shadowBlurOuter1"/>
  </filter>
  <linearGradient id="linearGradient-11" x2="68.826%" x1="34.764%" y2="41.066%">
   <stop stop-color="#FF9A3E" offset="0"/>
   <stop stop-color="#E44B26" offset="1"/>
  </linearGradient>
  <linearGradient id="linearGradient-13" y1="42.545%" x2="127.48%" x1="8.8033%" y2="47.368%">
   <stop stop-color="#FFA800" stop-opacity=".5" offset="0"/>
   <stop stop-color="#FA6628" offset="1"/>
  </linearGradient>
  <linearGradient id="linearGradient-14" x2="85.828%" x1="-66.093%" y2="74.253%">
   <stop stop-color="#616899" offset="0"/>
   <stop stop-color="#323760" offset="1"/>
  </linearGradient>
  <ellipse id="path-15" cy="32.168" cx="32.138" rx="32.138" ry="32.168"/>
  <filter id="filter-16" height="151.3%" width="151.3%" y="-25.6%" x="-25.7%" filterUnits="objectBoundingBox">
   <feMorphology operator="dilate" radius="2" result="shadowSpreadOuter1" in="SourceAlpha"/>
   <feOffset in="shadowSpreadOuter1" result="shadowOffsetOuter1" dx="0" dy="0"/>
   <feGaussianBlur stdDeviation="3.5" result="shadowBlurOuter1" in="shadowOffsetOuter1"/>
   <feColorMatrix type="matrix" values="0 0 0 0 0.960784314   0 0 0 0 0.623529412   0 0 0 0 0.0705882353  0 0 0 0.546082428 0" in="shadowBlurOuter1"/>
  </filter>
  <linearGradient id="linearGradient-17" y1="-50.146%" x2="70.355%" x1="39.177%" y2="14.647%">
   <stop stop-color="#FFA800" stop-opacity=".5" offset="0"/>
   <stop stop-color="#FA6628" offset="1"/>
  </linearGradient>
  <linearGradient id="linearGradient-18" y1="-50.146%" x2="122.19%" x1="11.615%" y2="14.647%">
   <stop stop-color="#FFA800" stop-opacity=".5" offset="0"/>
   <stop stop-color="#FA6628" offset="1"/>
  </linearGradient>
  <linearGradient id="linearGradient-19" y1="-50.146%" x2="105.76%" x1="20.35%" y2="14.647%">
   <stop stop-color="#FFA800" stop-opacity=".5" offset="0"/>
   <stop stop-color="#FA6628" offset="1"/>
  </linearGradient>
  <linearGradient id="linearGradient-20" y1="-50.146%" x2="94.198%" x1="26.5%" y2="14.647%">
   <stop stop-color="#FFA800" stop-opacity=".5" offset="0"/>
   <stop stop-color="#FA6628" offset="1"/>
  </linearGradient>
  <linearGradient id="linearGradient-21" y1="-50.146%" x2="93.681%" x1="26.774%" y2="14.647%">
   <stop stop-color="#FFA800" stop-opacity=".5" offset="0"/>
   <stop stop-color="#FA6628" offset="1"/>
  </linearGradient>
  <path id="path-22" d="m0.18122 0.45599s0.98078 18.943 15.089 26.324c14.107 7.381 26.47 9.774 44.687 9.774 18.216 0 23.553 0.299 35.457 3.267 11.906 2.968 26.446 13.097 25.446 29.249-0.99 16.152-11.28 29.962-11.28 29.962s15.09-6.413 20.18-28.142c5.09-21.73-5.97-33.702-5.97-33.702s-8.92-14.651-31.411-17.252c-22.488-2.601-29.777 4.247-51.706 0-21.929-4.246-40.492-19.48-40.492-19.48z"/>
  <filter id="filter-23" height="130.4%" width="122.9%" y="-15.2%" x="-11.5%" filterUnits="objectBoundingBox">
   <feMorphology operator="dilate" radius="1" result="shadowSpreadOuter1" in="SourceAlpha"/>
   <feOffset in="shadowSpreadOuter1" result="shadowOffsetOuter1" dx="0" dy="0"/>
   <feGaussianBlur stdDeviation="4" result="shadowBlurOuter1" in="shadowOffsetOuter1"/>
   <feColorMatrix type="matrix" values="0 0 0 0 0.968627451   0 0 0 0 0.564705882   0 0 0 0 0.0823529412  0 0 0 0.464249321 0" in="shadowBlurOuter1"/>
  </filter>
 </defs>
 <g id="Page-1" fill-rule="evenodd" fill="none">
  <g id="vuestic" transform="translate(10 11)">
   <g id="Frame">
    <use filter="url(#filter-2)" xlink:href="#path-1" fill="black"/>
    <use xlink:href="#path-1" stroke="#FF6A36" stroke-width="13.064"/>
   </g>
   <g id="Pieson" fill-rule="nonzero" transform="translate(59.411 27.081)">
    <g id="path-3-link" fill="#FA6628">
     <path id="path-3" d="m37.404 1.4425c4.114 0 7.982 0.7843 11.606 2.3528 3.624 1.5686 6.807 3.7254 9.55 6.4707 2.742 2.745 4.897 5.931 6.464 9.558s2.351 7.549 2.351 11.764c0 4.118-0.784 8.015-2.351 11.691s-3.722 6.862-6.464 9.558c-2.743 2.696-5.926 4.829-9.55 6.397-3.624 1.569-7.492 2.353-11.606 2.353h-23.8v47.203h-12.782l0.00038-107.35 36.582 0.0025zm0 47.204c2.351 0 4.579-0.441 6.685-1.323 2.105-0.882 3.917-2.108 5.436-3.676 1.518-1.569 2.742-3.383 3.672-5.441 0.931-2.059 1.396-4.265 1.396-6.618s-0.465-4.583-1.396-6.691c-0.93-2.107-2.154-3.946-3.672-5.514-1.519-1.569-3.331-2.794-5.436-3.676-2.106-0.883-4.334-1.324-6.685-1.324h-23.8v34.263h23.8zm40.402-13.381h12.634v73.525h-12.634v-73.525zm88.004 30.734c-0.79-2.745-1.94-5.319-3.46-7.721-1.51-2.402-3.35-4.46-5.5-6.176-2.16-1.716-4.58-3.064-7.28-4.044-2.69-0.98-5.55-1.47-8.59-1.47s-5.9 0.49-8.6 1.47c-2.69 0.98-5.11 2.328-7.27 4.044-2.15 1.716-4.01 3.774-5.58 6.176s-2.69 4.976-3.38 7.721h49.66zm-24.83 44.561c-5.29 0-10.26-1.01-14.91-3.02-4.66-2.01-8.72-4.75-12.2-8.234-3.47-3.48-6.22-7.524-8.22-12.132-2.01-4.608-3.02-9.558-3.02-14.852s1.01-10.294 3.02-15c2-4.705 4.75-8.774 8.22-12.205 3.48-3.431 7.54-6.152 12.2-8.161 4.65-2.01 9.62-3.015 14.91-3.015s10.26 1.005 14.91 3.015c4.65 2.009 8.69 4.73 12.12 8.161s6.15 7.5 8.15 12.205c2.01 4.706 3.02 9.706 3.02 15v2.206c0 0.784-0.1 2.107-0.3 3.97h-62.73c0.69 2.843 1.81 5.441 3.38 7.794s3.43 4.411 5.58 6.176c2.16 1.765 4.58 3.137 7.27 4.117 2.7 0.981 5.56 1.471 8.6 1.471 2.35 0 4.7-0.613 7.05-1.838 2.35-1.226 4.6-2.868 6.76-4.926l8.81 8.818c-3.23 3.14-6.78 5.67-10.65 7.58s-7.86 2.87-11.97 2.87zm73.02-33.091c-2.75 0-5.32-0.491-7.72-1.471s-4.53-2.328-6.39-4.044c-1.86-1.715-3.35-3.75-4.48-6.103-1.13-2.352-1.74-4.901-1.84-7.646-0.09-0.588-0.14-1.348-0.14-2.28 0-0.931 0.05-1.691 0.14-2.279 0.1-2.647 0.71-5.147 1.84-7.5 1.13-2.352 2.62-4.411 4.48-6.176 1.86-1.764 3.99-3.137 6.39-4.117 2.4-0.981 4.97-1.471 7.72-1.471h28.2v12.647h-28.2c-2.06 0-3.85 0.711-5.37 2.132-1.52 1.422-2.37 3.211-2.57 5.367-0.19 0.981-0.19 2.01 0 3.089 0.2 2.058 1.05 3.798 2.57 5.22 1.52 1.421 3.31 2.132 5.37 2.132h10.13c2.74 0 5.34 0.515 7.79 1.544 2.45 1.03 4.58 2.427 6.39 4.191 1.81 1.765 3.28 3.824 4.41 6.176 1.12 2.353 1.74 4.902 1.83 7.647v4.118c0 2.843-0.56 5.465-1.69 7.867-1.12 2.402-2.59 4.538-4.4 6.398-1.82 1.86-3.97 3.31-6.47 4.34s-5.16 1.54-8 1.54h-28.95v-12.499h28.95c1.95 0 3.64-0.637 5.06-1.911 1.42-1.275 2.38-2.794 2.87-4.559v-0.588c0-0.196 0.02-0.368 0.07-0.515s0.08-0.318 0.08-0.515v-2.794c-0.1-2.254-0.91-4.142-2.43-5.661-1.52-1.52-3.4-2.279-5.65-2.279h-9.99zm78.89-43.822c5.29 0 10.26 1.005 14.91 3.015 4.65 2.009 8.72 4.73 12.19 8.161 3.48 3.431 6.22 7.5 8.23 12.205 2.01 4.706 3.01 9.706 3.01 15s-1 10.269-3.01 14.926c-2.01 4.656-4.75 8.7-8.23 12.131-3.47 3.435-7.54 6.155-12.19 8.165s-9.62 3.01-14.91 3.01-10.24-1-14.84-3.01-8.64-4.73-12.12-8.165c-3.48-3.431-6.22-7.475-8.23-12.131-2.01-4.657-3.01-9.632-3.01-14.926s1-10.294 3.01-15c2.01-4.705 4.75-8.774 8.23-12.205s7.52-6.152 12.12-8.161c4.6-2.01 9.55-3.015 14.84-3.015zm0 12.647c-3.53 0-6.86 0.661-9.99 1.985-3.14 1.323-5.88 3.161-8.23 5.514s-4.19 5.098-5.51 8.235-1.98 6.47-1.98 10c0 3.529 0.66 6.862 1.98 9.999s3.16 5.858 5.51 8.162 5.09 4.142 8.23 5.514c3.13 1.373 6.46 2.059 9.99 2.059 3.52 0 6.85-0.686 9.99-2.059 3.13-1.372 5.88-3.21 8.23-5.514s4.18-5.025 5.51-8.162c1.32-3.137 1.98-6.47 1.98-9.999 0-3.53-0.66-6.863-1.98-10-1.33-3.137-3.16-5.882-5.51-8.235s-5.1-4.191-8.23-5.514c-3.14-1.324-6.47-1.985-9.99-1.985zm90.2-12.647c5.29 0 10.26 1.005 14.92 3.015 4.65 2.009 8.71 4.73 12.19 8.161s6.22 7.5 8.23 12.205c2 4.706 3.01 9.706 3.01 15v36.762h-12.64v-36.762c0-3.53-0.66-6.863-1.98-10s-3.13-5.882-5.44-8.235c-2.3-2.353-5.01-4.191-8.15-5.514-3.13-1.324-6.51-1.985-10.14-1.985-3.52 0-6.85 0.661-9.99 1.985-3.13 1.323-5.85 3.161-8.15 5.514s-4.14 5.098-5.51 8.235-2.06 6.47-2.06 10v36.762h-12.48v-36.762c0-5.294 1-10.294 3.01-15 2.01-4.705 4.75-8.774 8.23-12.205 3.47-3.431 7.51-6.152 12.12-8.161 4.6-2.01 9.54-3.015 14.83-3.015z"/>
    </g>
    <g id="path-3-link">
     <g id="path-3">
      <use filter="url(#filter-8)" xlink:href="#path-7" fill="black"/>
      <use xlink:href="#path-7" fill-rule="evenodd" stroke="url(#linearGradient-6)" stroke-width="0.972" fill="url(#linearGradient-5)"/>
     </g>
    </g>
   </g>
   <g id="FlameDown" fill-rule="nonzero" transform="translate(21.143 42.089)">
    <g id="Path-4-Copy-2">
     <use filter="url(#filter-10)" xlink:href="#path-9" fill="black"/>
     <use xlink:href="#path-9" fill-rule="evenodd" fill="#E44B26"/>
    </g>
    <g id="Path-4-Copy-3">
     <g id="path-4-link" fill="#FA6628">
      <path id="path-4" d="m87.472 8.0292s4.245 20.074-10.001 33.757c-14.246 13.684-38.724 5.311-46.984-6.25-8.261-11.562-4.261-21.91-4.261-21.91s-4.468-5.5968-12.723-9.9654c-8.2559-4.3685-13.503-3.6102-13.503-3.6102 0-0.000044 5.0733 1.0062 14.693 13.082 9.62 12.076 6.419 27.252 15.794 39.345s27.812 17.955 45.582 11.717c17.77-6.237 25.801-27.559 21.859-40.22-3.939-12.661-10.456-15.945-10.456-15.945z"/>
     </g>
     <g id="path-4-link" fill="url(#linearGradient-11)">
      <path id="path-4" d="m87.472 8.0292s4.245 20.074-10.001 33.757c-14.246 13.684-38.724 5.311-46.984-6.25-8.261-11.562-4.261-21.91-4.261-21.91s-4.468-5.5968-12.723-9.9654c-8.2559-4.3685-13.503-3.6102-13.503-3.6102 0-0.000044 5.0733 1.0062 14.693 13.082 9.62 12.076 6.419 27.252 15.794 39.345s27.812 17.955 45.582 11.717c17.77-6.237 25.801-27.559 21.859-40.22-3.939-12.661-10.456-15.945-10.456-15.945z"/>
     </g>
    </g>
    <g id="Path-4-Copy" transform="translate(86.417 5.4162)">
     <g id="path-6-link" fill="#EAA820">
      <path id="path-6" d="m0.36019 2.487s2.4325 8.262 0 17.704c0 0 5.4299 4.112 6.0756 13.146 0.6457 9.033-2.397 15.099-2.397 15.099 7.4062-9.105 10.536-21.694 7.9012-30.154-3.9404-12.65-11.58-15.795-11.58-15.795z"/>
     </g>
     <g id="path-6-link" fill="#EAA820">
      <path id="path-6" d="m0.36019 2.487s2.4325 8.262 0 17.704c0 0 5.4299 4.112 6.0756 13.146 0.6457 9.033-2.397 15.099-2.397 15.099 7.4062-9.105 10.536-21.694 7.9012-30.154-3.9404-12.65-11.58-15.795-11.58-15.795z"/>
     </g>
     <g id="path-6-link" fill="url(#linearGradient-13)">
      <path id="path-6" d="m0.36019 2.487s2.4325 8.262 0 17.704c0 0 5.4299 4.112 6.0756 13.146 0.6457 9.033-2.397 15.099-2.397 15.099 7.4062-9.105 10.536-21.694 7.9012-30.154-3.9404-12.65-11.58-15.795-11.58-15.795z"/>
     </g>
    </g>
    <path id="Path-4-Copy-5" fill="#323760" d="m87.624 8.0136s4.244 20.035-9.997 33.692c-14.241 13.656-39.577 3.488-46.379-6.851s-5.52-17.542-5.52-17.542-3.794-9.2994-12.046-13.66c-8.253-4.3596-13.498-3.6027-13.498-3.6027-0.00015-0.000042 10.158 2.7669 16.605 12.455 6.447 9.689 4.107 11.214 11.011 24.75s25.669 20.962 43.432 14.736c17.764-6.226 26.453-28.093 22.515-40.729-3.938-12.637-6.123-3.2484-6.123-3.2484z"/>
   </g>
   <g id="Planet" fill-rule="nonzero" transform="translate(74.987 58.032) rotate(209) translate(-36.007 -32.498)">
    <g id="Oval-4">
     <use filter="url(#filter-16)" xlink:href="#path-15" fill="black"/>
     <use xlink:href="#path-15" fill-rule="evenodd" fill="url(#linearGradient-14)"/>
    </g>
    <g id="Oval-4-Copy-3">
     <g id="path-7-link" fill="#EAA820">
      <path id="path-7" d="m41.064 20.939s3.367 0.206 3.899-3.032-1.589-4.163-1.589-4.163l-21.893-3.273s-4.18-1.1547-2.466-5.5737c1.713-4.4191 19.761-4.2112 19.761-4.2112-2.141-0.44967-4.36-0.6861-6.634-0.6861-11.893 1.279e-12 -22.278 6.4667-27.835 16.079l36.757 4.86z"/>
     </g>
     <g id="path-7-link" fill="#EAA820">
      <path id="path-7" d="m41.064 20.939s3.367 0.206 3.899-3.032-1.589-4.163-1.589-4.163l-21.893-3.273s-4.18-1.1547-2.466-5.5737c1.713-4.4191 19.761-4.2112 19.761-4.2112-2.141-0.44967-4.36-0.6861-6.634-0.6861-11.893 1.279e-12 -22.278 6.4667-27.835 16.079l36.757 4.86z"/>
     </g>
     <g id="path-7-link" fill="url(#linearGradient-17)">
      <path id="path-7" d="m41.064 20.939s3.367 0.206 3.899-3.032-1.589-4.163-1.589-4.163l-21.893-3.273s-4.18-1.1547-2.466-5.5737c1.713-4.4191 19.761-4.2112 19.761-4.2112-2.141-0.44967-4.36-0.6861-6.634-0.6861-11.893 1.279e-12 -22.278 6.4667-27.835 16.079l36.757 4.86z"/>
     </g>
    </g>
    <g id="Oval-4-Copy-2" transform="translate(0 21.665)">
     <g id="path-8-link" fill="#EAA820">
      <path id="path-8" d="m32.138 37.89s3.079-0.16 3.405-4.226c0.326-4.065-3.405-5.032-3.405-5.032l-22.619-2.979c0.0004 0-2.7122-1.893-2.2452-5.661 0.467-3.767 4.0232-4.287 4.0232-4.287l7.217 0.868s4.136 0 4.463-4.486c0.327-4.4866-3.578-5.4397-3.578-5.4397l-18.617-3.1825c-0.51192 2.2794-0.782 4.6502-0.782 7.0842-2.7285e-12 10.627 5.1481 20.05 13.084 25.907l19.054 1.434z"/>
     </g>
     <g id="path-8-link" fill="#EAA820">
      <path id="path-8" d="m32.138 37.89s3.079-0.16 3.405-4.226c0.326-4.065-3.405-5.032-3.405-5.032l-22.619-2.979c0.0004 0-2.7122-1.893-2.2452-5.661 0.467-3.767 4.0232-4.287 4.0232-4.287l7.217 0.868s4.136 0 4.463-4.486c0.327-4.4866-3.578-5.4397-3.578-5.4397l-18.617-3.1825c-0.51192 2.2794-0.782 4.6502-0.782 7.0842-2.7285e-12 10.627 5.1481 20.05 13.084 25.907l19.054 1.434z"/>
     </g>
     <g id="path-8-link" fill="url(#linearGradient-18)">
      <path id="path-8" d="m32.138 37.89s3.079-0.16 3.405-4.226c0.326-4.065-3.405-5.032-3.405-5.032l-22.619-2.979c0.0004 0-2.7122-1.893-2.2452-5.661 0.467-3.767 4.0232-4.287 4.0232-4.287l7.217 0.868s4.136 0 4.463-4.486c0.327-4.4866-3.578-5.4397-3.578-5.4397l-18.617-3.1825c-0.51192 2.2794-0.782 4.6502-0.782 7.0842-2.7285e-12 10.627 5.1481 20.05 13.084 25.907l19.054 1.434z"/>
     </g>
    </g>
    <g id="Oval-4-Copy" transform="translate(51.322 40.397) rotate(-5) translate(-18.903 -18.957)">
     <g id="path-9-link" fill="#EAA820">
      <path id="path-9" d="m17.955 26.989s2.226 0.799 3.393 2.977c1.166 2.178 1.124 2.605 1.124 2.605 6.016-5.846 10.153-13.091 10.153-22.147 0-0.7787 0.045-1.5312-0.009-2.2965 0 0-0.474-0.2185-1.11-0.3555-0.635-0.1371-11.413-2.3527-12.987-2.7416-1.914-0.4726-4.269-0.326-4.695 2.9289-0.425 3.2547 2.558 3.9507 2.558 3.9507l7.265 1.563s1.748 0.229 1.408 1.953c-0.341 1.725-1.911 1.094-1.911 1.094l-8.765-2.119s-2.207-0.686-2.601 1.476c-0.395 2.163 1.621 2.486 1.621 2.486l3.863 1.047s1.167 0.071 0.88 1.06c-0.286 0.988-1.346 0.51-1.346 0.51l-13.512-2.617c-0.0001 0-3.079-0.541-3.2406 2.617-0.16154 3.159 2.4446 3.271 2.4446 3.271l15.467 2.738z"/>
     </g>
     <g id="path-9-link" fill="#EAA820">
      <path id="path-9" d="m17.955 26.989s2.226 0.799 3.393 2.977c1.166 2.178 1.124 2.605 1.124 2.605 6.016-5.846 10.153-13.091 10.153-22.147 0-0.7787 0.045-1.5312-0.009-2.2965 0 0-0.474-0.2185-1.11-0.3555-0.635-0.1371-11.413-2.3527-12.987-2.7416-1.914-0.4726-4.269-0.326-4.695 2.9289-0.425 3.2547 2.558 3.9507 2.558 3.9507l7.265 1.563s1.748 0.229 1.408 1.953c-0.341 1.725-1.911 1.094-1.911 1.094l-8.765-2.119s-2.207-0.686-2.601 1.476c-0.395 2.163 1.621 2.486 1.621 2.486l3.863 1.047s1.167 0.071 0.88 1.06c-0.286 0.988-1.346 0.51-1.346 0.51l-13.512-2.617c-0.0001 0-3.079-0.541-3.2406 2.617-0.16154 3.159 2.4446 3.271 2.4446 3.271l15.467 2.738z"/>
     </g>
     <g id="path-9-link" fill="url(#linearGradient-19)">
      <path id="path-9" d="m17.955 26.989s2.226 0.799 3.393 2.977c1.166 2.178 1.124 2.605 1.124 2.605 6.016-5.846 10.153-13.091 10.153-22.147 0-0.7787 0.045-1.5312-0.009-2.2965 0 0-0.474-0.2185-1.11-0.3555-0.635-0.1371-11.413-2.3527-12.987-2.7416-1.914-0.4726-4.269-0.326-4.695 2.9289-0.425 3.2547 2.558 3.9507 2.558 3.9507l7.265 1.563s1.748 0.229 1.408 1.953c-0.341 1.725-1.911 1.094-1.911 1.094l-8.765-2.119s-2.207-0.686-2.601 1.476c-0.395 2.163 1.621 2.486 1.621 2.486l3.863 1.047s1.167 0.071 0.88 1.06c-0.286 0.988-1.346 0.51-1.346 0.51l-13.512-2.617c-0.0001 0-3.079-0.541-3.2406 2.617-0.16154 3.159 2.4446 3.271 2.4446 3.271l15.467 2.738z"/>
     </g>
    </g>
   </g>
   <g id="FlameUp" fill-rule="nonzero">
    <path id="Path-3" fill="#323760" d="m1.1035 2.4144s10.192 19.43 20.184 26.334c9.992 6.903 15.566 10.663 33.682 12.409 8.29 0.799 14.286-0.09 19.838 0 5.553 0.09 12.414 1.213 18.871 2.823 11.901 2.967 27.421 13.021 26.431 29.173s-11.96 26.623-11.96 26.623 18.08-8.976 21.59-28.982-4.07-30.862-4.07-30.862-9.22-15.809-28.021-18.822c-18.803-3.013-35.962 4.247-57.891 0-21.929-4.246-38.654-18.696-38.654-18.696z"/>
    <path id="Path-3-Copy-4" fill="#323760" d="m0.16666 0.0006209s-2.0385 18.409 12.998 29.115c15.037 10.705 35.571 11.831 49.011 12.308 13.44 0.478 5.17-8.286 33.238-1.603 28.066 6.683 26.446 13.097 25.446 29.249-0.99 16.152-11.28 29.962-11.28 29.962s15.09-6.413 20.18-28.142c5.09-21.73-5.97-33.702-5.97-33.702s-8.92-14.651-31.411-17.252c-22.488-2.601-29.777 4.247-51.706 0-21.929-4.246-40.506-19.935-40.506-19.935z"/>
    <g id="Path-3-Copy-2">
     <g id="path-10-link" fill="#EAA820">
      <path id="path-10" d="m0.22208 1.1343s11.073 20.71 21.065 27.614c9.993 6.903 12.366 3.377 30.483 5.123 18.116 1.746 31.2 1.578 43.104 4.546 11.906 2.967 27.886 16.225 26.896 32.377-1 16.152-13.62 28.982-13.62 28.982s18.08-8.976 21.59-28.982-5.37-27.121-5.37-27.121 6.84-5.256-18.07-20.073c-15.672-9.321-30.913-6.126-51.491-5.844-20.578 0.281-43.244-8.9509-49.754-13.523-6.5095-4.5727-4.8329-3.0987-4.8329-3.0987z"/>
     </g>
     <g id="path-10-link" fill="#EAA820">
      <path id="path-10" d="m0.22208 1.1343s11.073 20.71 21.065 27.614c9.993 6.903 12.366 3.377 30.483 5.123 18.116 1.746 31.2 1.578 43.104 4.546 11.906 2.967 27.886 16.225 26.896 32.377-1 16.152-13.62 28.982-13.62 28.982s18.08-8.976 21.59-28.982-5.37-27.121-5.37-27.121 6.84-5.256-18.07-20.073c-15.672-9.321-30.913-6.126-51.491-5.844-20.578 0.281-43.244-8.9509-49.754-13.523-6.5095-4.5727-4.8329-3.0987-4.8329-3.0987z"/>
     </g>
     <g id="path-10-link" fill="url(#linearGradient-20)">
      <path id="path-10" d="m0.22208 1.1343s11.073 20.71 21.065 27.614c9.993 6.903 12.366 3.377 30.483 5.123 18.116 1.746 31.2 1.578 43.104 4.546 11.906 2.967 27.886 16.225 26.896 32.377-1 16.152-13.62 28.982-13.62 28.982s18.08-8.976 21.59-28.982-5.37-27.121-5.37-27.121 6.84-5.256-18.07-20.073c-15.672-9.321-30.913-6.126-51.491-5.844-20.578 0.281-43.244-8.9509-49.754-13.523-6.5095-4.5727-4.8329-3.0987-4.8329-3.0987z"/>
     </g>
    </g>
    <g id="Path-3-Copy-3">
     <g id="path-11-link" fill="#EAA820">
      <path id="path-11" d="m0.18122 0.45599s0.98078 18.943 15.089 26.324c14.107 7.381 26.47 9.774 44.687 9.774 18.216 0 23.553 0.299 35.457 3.267 11.906 2.968 26.446 13.097 25.446 29.249-0.99 16.152-11.28 29.962-11.28 29.962s15.09-6.413 20.18-28.142c5.09-21.73-5.97-33.702-5.97-33.702s-8.92-14.651-31.411-17.252c-22.488-2.601-29.777 4.247-51.706 0-21.929-4.246-40.492-19.48-40.492-19.48z"/>
     </g>
     <g id="path-11-link" fill="#EAA820">
      <path id="path-11" d="m0.18122 0.45599s0.98078 18.943 15.089 26.324c14.107 7.381 26.47 9.774 44.687 9.774 18.216 0 23.553 0.299 35.457 3.267 11.906 2.968 26.446 13.097 25.446 29.249-0.99 16.152-11.28 29.962-11.28 29.962s15.09-6.413 20.18-28.142c5.09-21.73-5.97-33.702-5.97-33.702s-8.92-14.651-31.411-17.252c-22.488-2.601-29.777 4.247-51.706 0-21.929-4.246-40.492-19.48-40.492-19.48z"/>
     </g>
     <g id="path-11-link">
      <g id="path-11">
       <use filter="url(#filter-23)" xlink:href="#path-22" fill="black"/>
       <use xlink:href="#path-22" fill-rule="evenodd" fill="url(#linearGradient-21)"/>
      </g>
     </g>
    </g>
   </g>
  </g>
 </g>
</svg>
