<?xml version="1.0" encoding="UTF-8" standalone="no"?>
<svg xmlns="http://www.w3.org/2000/svg" height="32px" width="98px" version="1.1" xmlns:xlink="http://www.w3.org/1999/xlink" viewBox="0 0 98 32"><!-- Generator: Sketch 48.2 (47327) - http://www.bohemiancoding.com/sketch -->
 <title>LogoV1</title>
 <desc>Created with Sketch.</desc>
 <defs>
  <linearGradient id="linearGradient-1" x2="91.609%" x1="16.324%" y2="41.066%">
   <stop stop-color="#FF9A3E" offset="0"/>
   <stop stop-color="#E44B26" offset="1"/>
  </linearGradient>
  <linearGradient id="linearGradient-2" y1="23.925%" x2="101.56%" x1="-6.8627%" y2="69.66%">
   <stop stop-color="#FF9A3E" offset="0"/>
   <stop stop-color="#E44B26" offset="1"/>
  </linearGradient>
  <path id="path-3" d="m17.925 5.2663c0.762 0 1.478 0.1448 2.149 0.4344s1.261 0.6878 1.768 1.1947c0.508 0.5068 0.907 1.095 1.197 1.7647s0.435 1.3939 0.435 2.1719c0 0.76-0.145 1.48-0.435 2.159-0.29 0.678-0.689 1.267-1.197 1.764-0.507 0.498-1.097 0.892-1.768 1.181-0.671 0.29-1.387 0.435-2.149 0.435h-4.406v8.715h-2.367v-19.82l6.773 0.0003zm0 8.7157c0.436 0 0.848-0.082 1.238-0.245s0.725-0.389 1.006-0.679c0.282-0.289 0.508-0.624 0.68-1.004 0.173-0.38 0.259-0.787 0.259-1.222 0-0.434-0.086-0.846-0.259-1.2352-0.172-0.3891-0.398-0.7285-0.68-1.0181-0.281-0.2896-0.616-0.5159-1.006-0.6788s-0.802-0.2443-1.238-0.2443h-4.406v6.3264h4.406zm7.481-2.471h2.339v13.575h-2.339v-13.575zm16.293 5.674c-0.145-0.506-0.358-0.982-0.639-1.425s-0.621-0.824-1.02-1.14c-0.399-0.317-0.848-0.566-1.347-0.747-0.498-0.181-1.029-0.271-1.591-0.271s-1.092 0.09-1.591 0.271-0.948 0.43-1.347 0.747c-0.398 0.316-0.743 0.697-1.033 1.14s-0.499 0.919-0.626 1.425h9.194zm-4.597 8.227c-0.979 0-1.899-0.186-2.761-0.557-0.861-0.371-1.614-0.878-2.257-1.52-0.644-0.643-1.152-1.389-1.524-2.24-0.371-0.851-0.557-1.765-0.557-2.742 0-0.978 0.186-1.901 0.557-2.77 0.372-0.868 0.88-1.619 1.524-2.253 0.643-0.634 1.396-1.136 2.257-1.507 0.862-0.371 1.782-0.556 2.761-0.556s1.9 0.185 2.761 0.556 1.61 0.873 2.244 1.507c0.635 0.634 1.138 1.385 1.51 2.253 0.372 0.869 0.558 1.792 0.558 2.77v0.407c0 0.145-0.019 0.389-0.055 0.733h-11.615c0.127 0.525 0.336 1.005 0.626 1.439 0.29 0.435 0.635 0.815 1.033 1.14 0.399 0.326 0.848 0.58 1.347 0.761s1.029 0.271 1.591 0.271c0.435 0 0.871-0.113 1.306-0.339s0.852-0.53 1.251-0.91l1.632 1.629c-0.598 0.579-1.256 1.046-1.972 1.398-0.716 0.353-1.455 0.53-2.217 0.53zm13.519-6.109c-0.508 0-0.984-0.09-1.428-0.271s-0.839-0.43-1.183-0.747c-0.345-0.317-0.621-0.692-0.83-1.127-0.208-0.434-0.322-0.905-0.34-1.412-0.018-0.108-0.027-0.248-0.027-0.42s0.009-0.313 0.027-0.421c0.018-0.489 0.132-0.951 0.34-1.385 0.209-0.434 0.485-0.814 0.83-1.14 0.344-0.326 0.739-0.579 1.183-0.76s0.92-0.272 1.428-0.272h5.223v2.335h-5.223c-0.381 0-0.712 0.131-0.993 0.394-0.281 0.262-0.439 0.592-0.476 0.991-0.036 0.181-0.036 0.371 0 0.57 0.037 0.38 0.195 0.701 0.476 0.964 0.281 0.262 0.612 0.393 0.993 0.393h1.877c0.508 0 0.988 0.095 1.442 0.285 0.453 0.19 0.848 0.448 1.183 0.774s0.607 0.706 0.816 1.14c0.209 0.435 0.322 0.906 0.34 1.412v0.761c0 0.524-0.104 1.009-0.313 1.452-0.208 0.444-0.48 0.837-0.816 1.181-0.335 0.344-0.734 0.611-1.197 0.801-0.462 0.19-0.956 0.285-1.482 0.285h-5.359v-2.308h5.359c0.363 0 0.675-0.117 0.938-0.353 0.263-0.235 0.44-0.515 0.531-0.841v-0.109c0-0.036 0.004-0.068 0.013-0.095s0.014-0.059 0.014-0.095v-0.516c-0.018-0.416-0.168-0.765-0.449-1.045-0.281-0.281-0.63-0.421-1.047-0.421h-1.85zm14.607-8.091c0.979 0 1.9 0.186 2.761 0.557 0.862 0.371 1.614 0.873 2.258 1.507 0.644 0.633 1.151 1.384 1.523 2.253s0.558 1.792 0.558 2.77c0 0.977-0.186 1.896-0.558 2.755-0.372 0.86-0.879 1.607-1.523 2.24-0.644 0.634-1.396 1.136-2.258 1.507-0.861 0.371-1.782 0.557-2.761 0.557s-1.895-0.186-2.747-0.557-1.6-0.873-2.244-1.507c-0.644-0.633-1.152-1.38-1.523-2.24-0.372-0.859-0.558-1.778-0.558-2.755 0-0.978 0.186-1.901 0.558-2.77 0.371-0.869 0.879-1.62 1.523-2.253 0.644-0.634 1.392-1.136 2.244-1.507s1.768-0.557 2.747-0.557zm0 2.335c-0.653 0-1.269 0.122-1.849 0.367-0.581 0.244-1.088 0.583-1.524 1.018-0.435 0.434-0.775 0.941-1.02 1.52-0.245 0.58-0.367 1.195-0.367 1.847 0 0.651 0.122 1.267 0.367 1.846s0.585 1.081 1.02 1.507c0.436 0.425 0.943 0.764 1.524 1.018 0.58 0.253 1.196 0.38 1.849 0.38s1.27-0.127 1.85-0.38c0.58-0.254 1.088-0.593 1.523-1.018 0.435-0.426 0.775-0.928 1.02-1.507s0.367-1.195 0.367-1.846c0-0.652-0.122-1.267-0.367-1.847-0.245-0.579-0.585-1.086-1.02-1.52-0.435-0.435-0.943-0.774-1.523-1.018-0.58-0.245-1.197-0.367-1.85-0.367zm16.702-2.335c0.979 0 1.899 0.186 2.761 0.557 0.861 0.371 1.614 0.873 2.257 1.507 0.644 0.633 1.152 1.384 1.524 2.253 0.371 0.869 0.557 1.792 0.557 2.77v6.787h-2.339v-6.787c0-0.652-0.122-1.267-0.367-1.847-0.245-0.579-0.581-1.086-1.007-1.52-0.426-0.435-0.929-0.774-1.509-1.018-0.581-0.245-1.206-0.367-1.877-0.367-0.653 0-1.27 0.122-1.85 0.367-0.58 0.244-1.083 0.583-1.51 1.018-0.426 0.434-0.766 0.941-1.02 1.52-0.254 0.58-0.38 1.195-0.38 1.847v6.787h-2.313v-6.787c0-0.978 0.186-1.901 0.558-2.77s0.88-1.62 1.523-2.253c0.644-0.634 1.392-1.136 2.244-1.507 0.853-0.371 1.769-0.557 2.748-0.557z"/>
  <path id="path-4" d="m16.195 1.4824s0.786 3.7063-1.851 6.2327c-2.638 2.5259-7.17 0.9804-8.6994-1.1541-1.5294-2.1346-0.7888-4.0452-0.7888-4.0452s-0.8273-1.0334-2.3558-1.8399c-1.5285-0.80661-2.5-0.6666-2.5-0.6666 0-0.0000028 0.93932 0.18578 2.7204 2.4153s1.1885 5.0316 2.9242 7.2644c1.7358 2.233 5.1494 3.315 8.4394 2.163 3.29-1.151 4.777-5.088 4.047-7.4256-0.729-2.3376-1.936-2.944-1.936-2.944z"/>
  <linearGradient id="linearGradient-5" y1="-50.146%" x2="127.48%" x1="8.8033%" y2="14.647%">
   <stop stop-color="#FFA800" stop-opacity=".5" offset="0"/>
   <stop stop-color="#FA6628" offset="1"/>
  </linearGradient>
  <path id="path-6" d="m16.067 1.4592s0.45 1.5253 0 3.2688c0 0 1.005 0.7591 1.125 2.427 0.119 1.6678-0.444 2.7877-0.444 2.7877 1.371-1.6809 1.951-4.0053 1.463-5.5673-0.73-2.3356-2.144-2.9162-2.144-2.9162z"/>
  <path id="path-7" d="m7.603 3.8659s0.6234 0.0382 0.7219-0.5597c0.0986-0.5978-0.2943-0.7687-0.2943-0.7687l-4.0533-0.6043s-0.774-0.2131-0.4567-1.029c0.3172-0.81591 3.6587-0.77753 3.6587-0.77753-0.3963-0.083018-0.8072-0.12667-1.2282-0.12667-2.2021 1.279e-12 -4.1248 1.194-5.1537 2.9687l6.8056 0.8972z"/>
  <path id="path-8" d="m5.9503 10.996s0.5702-0.03 0.6305-0.781c0.0604-0.7501-0.6305-0.9286-0.6305-0.9286l-4.1878-0.5501s-0.5022-0.3495-0.4158-1.0451c0.0865-0.6956 0.745-0.7917 0.745-0.7917l1.3361 0.1604s0.7659 0 0.8264-0.8283c0.0604-0.8283-0.6625-1.0043-0.6625-1.0043l-3.4469-0.5876c-0.094795 0.4208-0.1448 0.8586-0.1448 1.308-2.7285e-12 1.962 0.95317 3.7018 2.4225 4.7833l3.5278 0.265z"/>
  <path id="path-9" d="m9.3243 8.983s0.4123 0.1475 0.6283 0.5496c0.2164 0.4021 0.2084 0.4814 0.2084 0.4814 1.113-1.0797 1.88-2.4174 1.88-4.0893 0-0.1439 0.008-0.2828-0.002-0.4241 0 0-0.088-0.0403-0.206-0.0657-0.117-0.0253-2.1127-0.4343-2.4043-0.5061-0.3543-0.0873-0.7904-0.0602-0.8691 0.5407-0.0788 0.601 0.4734 0.7295 0.4734 0.7295l1.345 0.2885s0.324 0.0423 0.261 0.3607-0.354 0.2019-0.354 0.2019l-1.6227-0.3912s-0.4086-0.1267-0.4817 0.2726c-0.073 0.3993 0.3002 0.459 0.3002 0.459l0.7152 0.1931s0.2161 0.0132 0.163 0.1957c-0.053 0.1825-0.2491 0.0943-0.2491 0.0943l-2.5019-0.4831s-0.5701-0.1001-0.6 0.4831c-0.0299 0.5831 0.4527 0.6039 0.4527 0.6039l2.8636 0.5055z"/>
  <path id="path-10" d="m0.041118 0.20943s2.0501 3.8237 3.9002 5.0983 2.2896 0.6236 5.6438 0.946c3.3539 0.3223 5.7769 0.2913 7.9809 0.8392s5.163 2.9961 4.979 5.9781-2.521 5.351-2.521 5.351 3.348-1.658 3.998-5.351c0.65-3.6939-0.994-5.0077-0.994-5.0077s1.265-0.9704-3.347-3.706c-2.901-1.721-5.723-1.131-9.533-1.0791-3.8101 0.0519-8.0068-1.6525-9.2121-2.4967-1.2052-0.84421-0.89478-0.57207-0.89478-0.57207z"/>
  <path id="path-11" d="m0.033553 0.084189s0.18159 3.4974 2.7936 4.8602c2.612 1.3629 4.901 1.8046 8.2738 1.8046 3.373 0 4.361 0.0553 6.565 0.6032s4.895 2.4182 4.711 5.3998c-0.184 2.983-2.089 5.532-2.089 5.532s2.794-1.184 3.737-5.196c0.943-4.0116-1.106-6.222-1.106-6.222s-1.651-2.705-5.815-3.1852-5.513 0.7841-9.5735 0c-4.0601-0.784-7.4969-3.5966-7.4969-3.5966z"/>
 </defs>
 <g id="Page-1" fill-rule="evenodd" fill="none">
  <g id="Group">
   <g id="LogoV1">
    <path id="Frame" stroke="#FF6A36" stroke-width="2.4192" d="m25.949 5.8586l-21.812 15.158v9.773h92.653v-24.931l-70.841-0.0004z"/>
    <g id="Pieson">
     <use xlink:href="#path-3" fill="#FA6628"/>
     <use xlink:href="#path-3" stroke="url(#linearGradient-2)" stroke-width="1.18" fill="url(#linearGradient-1)"/>
    </g>
    <g id="FlameDown" transform="translate(3.9146 7.7709)">
     <path id="Path-4-Copy-2" fill="#E44B26" d="m16.195 1.4799s0.786 3.7-1.851 6.2221c-2.638 2.522-7.17 0.9788-8.6994-1.1521-1.5294-2.131-0.9722-3.817-0.9722-3.817s-0.6439-1.253-2.1724-2.0582c-1.5285-0.80518-2.5-0.66542-2.5-0.66542 0 0.0000014 1.8967 1.0625 2.365 3.4066 0.4683 2.344 0.4845 4.1464 2.408 6.2746 1.9234 2.1285 6.021 3.2915 9.311 2.1415s4.777-5.0795 4.047-7.4131c-0.729-2.3337-1.936-2.939-1.936-2.939z"/>
     <g id="Path-4-Copy-3">
      <use xlink:href="#path-4" fill="#FA6628"/>
      <use xlink:href="#path-4" fill="url(#linearGradient-1)"/>
     </g>
     <g id="Path-4-Copy">
      <use xlink:href="#path-6" fill="#EAA820"/>
      <use xlink:href="#path-6" fill="#EAA820"/>
      <use xlink:href="#path-6" fill="url(#linearGradient-5)"/>
     </g>
     <path id="Path-4-Copy-5" fill="#323760" d="m16.224 1.4796s0.785 3.6991-1.851 6.2205c-2.637 2.5219-7.328 0.6442-8.5875-1.2647-1.2594-1.9089-1.022-3.2389-1.022-3.2389s-0.7024-1.7169-2.2304-2.5219c-1.5279-0.80505-2.4991-0.66532-2.4991-0.66532 0.00004-8e-7 1.8808 0.51086 3.0744 2.2996 1.1937 1.7887 0.7605 2.0704 2.0388 4.5696 1.2783 2.4991 4.7525 3.8705 8.0418 2.7206 3.289-1.1494 4.897-5.1868 4.168-7.5199-0.729-2.333-1.133-0.5996-1.133-0.5996z"/>
    </g>
    <g id="Planet" transform="translate(14.03 10.795) rotate(209) translate(-6.5004 -5.9998)">
     <ellipse id="Oval-4" rx="5.9503" ry="5.9392" cy="5.9392" cx="5.9503" fill="#323760"/>
     <g id="Oval-4-Copy-3">
      <use xlink:href="#path-7" fill="#EAA820"/>
      <use xlink:href="#path-7" fill="#EAA820"/>
      <use xlink:href="#path-7" fill="url(#linearGradient-5)"/>
     </g>
     <g id="Oval-4-Copy-2">
      <use xlink:href="#path-8" fill="#EAA820"/>
      <use xlink:href="#path-8" fill="#EAA820"/>
      <use xlink:href="#path-8" fill="url(#linearGradient-5)"/>
     </g>
     <g id="Oval-4-Copy" transform="translate(9.0253 7.4528) rotate(-5) translate(-9.0253 -7.4528)">
      <use xlink:href="#path-9" fill="#EAA820"/>
      <use xlink:href="#path-9" fill="#EAA820"/>
      <use xlink:href="#path-9" fill="url(#linearGradient-5)"/>
     </g>
    </g>
    <g id="FlameUp">
     <path id="Path-3" fill="#323760" d="m0.20432 0.44578s1.8869 3.5873 3.737 4.8619 2.8822 1.9688 6.2367 2.2911c1.535 0.1475 2.645-0.0166 3.673 0s2.298 0.224 3.494 0.5212c2.204 0.5479 5.077 2.404 4.893 5.386s-2.214 4.916-2.214 4.916 3.348-1.658 3.998-5.351c0.65-3.6939-0.754-5.6983-0.754-5.6983s-1.707-2.9189-5.188-3.4751c-3.482-0.5563-6.659 0.784-10.719 0s-7.1567-3.4518-7.1567-3.4518z"/>
     <path id="Path-3-Copy-4" fill="#323760" d="m0.030857 0.00011464s-0.37742 3.399 2.4066 5.3755c2.7842 1.9766 6.586 2.1844 9.0745 2.2726 2.488 0.0882 0.957-1.5299 6.154-0.296s4.895 2.4182 4.711 5.3998c-0.184 2.983-2.089 5.532-2.089 5.532s2.794-1.184 3.737-5.196c0.943-4.0116-1.106-6.222-1.106-6.222s-1.651-2.705-5.815-3.1852-5.513 0.7841-9.5735 0c-4.0601-0.784-7.4996-3.6807-7.4996-3.6807z"/>
     <g id="Path-3-Copy-2">
      <use xlink:href="#path-10" fill="#EAA820"/>
      <use xlink:href="#path-10" fill="#EAA820"/>
      <use xlink:href="#path-10" fill="url(#linearGradient-5)"/>
     </g>
     <mask id="mask-12" fill="white">
      <use xlink:href="#path-11"/>
     </mask>
     <g id="Path-3-Copy-3">
      <use xlink:href="#path-11" fill="#EAA820"/>
      <use xlink:href="#path-11" fill="#EAA820"/>
      <use xlink:href="#path-11" fill="url(#linearGradient-5)"/>
     </g>
    </g>
   </g>
  </g>
 </g>
</svg>
